<svg width="22" height="26" viewBox="0 0 22 26" fill="none" xmlns="http://www.w3.org/2000/svg">
<path d="M14.8918 3.59426L14.6921 3.66083C12.4874 4.39571 11.0004 6.45888 11.0004 8.78279V5.48731C11.0004 3.63236 9.69107 2.03527 7.87213 1.67149L4.51471 1V1.70121C4.51471 3.55617 5.824 5.15325 7.64294 5.51704L11.0004 6.18852M15.9833 7.15968C17.3415 7.06669 18.6702 7.58537 19.6061 8.57391C20.4836 9.5007 20.9786 10.7203 21 11.9894L20.9965 12.283L20.963 13.1022C20.8916 14.8525 20.61 16.587 20.1249 18.2686L19.9335 18.8967L19.4572 20.3788C18.8708 22.2039 17.4144 23.6173 15.5725 24.1488C14.7906 24.3745 13.725 24.3259 12.3758 24.003L12.0009 23.9082C11.3451 23.7336 10.655 23.7337 9.99923 23.9082C8.47159 24.3148 7.28124 24.395 6.42818 24.1488C4.58636 23.6173 3.12994 22.2039 2.5435 20.3788L2.06725 18.8967C1.46437 17.0204 1.11804 15.0713 1.03768 13.1022L1.00424 12.283C0.948192 10.9097 1.44962 9.57199 2.3946 8.57391C3.33055 7.58537 4.65922 7.06669 6.01738 7.15968L6.81913 7.21458C7.9719 7.29351 9.36593 8.13951 11.0012 9.75257C12.5148 8.2153 13.8072 7.37913 14.8783 7.24406L15.1816 7.21458L15.9833 7.15968Z" stroke="#B2AC88" stroke-width="1.5" stroke-linecap="round"/>
</svg>
