<svg width="80" height="80" viewBox="0 0 80 80" fill="none" xmlns="http://www.w3.org/2000/svg">
<path d="M8.00004 64.6667V42C8.00004 41.2627 7.40271 40.6667 6.66671 40.6667C5.93071 40.6667 5.33337 41.2627 5.33337 42V64.6667C5.33337 65.404 5.93071 66 6.66671 66C7.40271 66 8.00004 65.404 8.00004 64.6667Z" fill="white"/>
<path d="M74.6667 64.6667V42C74.6667 41.2627 74.0693 40.6667 73.3333 40.6667C72.5973 40.6667 72 41.2627 72 42V64.6667C72 65.404 72.5973 66 73.3333 66C74.0693 66 74.6667 65.404 74.6667 64.6667Z" fill="white"/>
<path d="M12 40.6667C11.264 40.6667 10.6666 41.2627 10.6666 42V54C10.6666 54.7373 11.264 55.3333 12 55.3333C12.736 55.3333 13.3333 54.7373 13.3333 54V42C13.3333 41.2627 12.736 40.6667 12 40.6667Z" fill="white"/>
<path d="M16 40.6667C15.264 40.6667 14.6666 41.2627 14.6666 42V54C14.6666 54.7373 15.264 55.3333 16 55.3333C16.736 55.3333 17.3333 54.7373 17.3333 54V42C17.3333 41.2627 16.736 40.6667 16 40.6667Z" fill="white"/>
<path d="M24 54V42C24 41.2627 23.4027 40.6667 22.6667 40.6667C21.9307 40.6667 21.3334 41.2627 21.3334 42V54C21.3334 54.7373 21.9307 55.3333 22.6667 55.3333C23.4027 55.3333 24 54.7373 24 54Z" fill="white"/>
<path d="M28 54V42C28 41.2627 27.4027 40.6667 26.6667 40.6667C25.9307 40.6667 25.3334 41.2627 25.3334 42V54C25.3334 54.7373 25.9307 55.3333 26.6667 55.3333C27.4027 55.3333 28 54.7373 28 54Z" fill="white"/>
<path d="M32 54V42C32 41.2627 31.4027 40.6667 30.6667 40.6667C29.9307 40.6667 29.3334 41.2627 29.3334 42V54C29.3334 54.7373 29.9307 55.3333 30.6667 55.3333C31.4027 55.3333 32 54.7373 32 54Z" fill="white"/>
<path d="M40 54V42C40 41.2627 39.4027 40.6667 38.6667 40.6667C37.9307 40.6667 37.3334 41.2627 37.3334 42V54C37.3334 54.7373 37.9307 55.3333 38.6667 55.3333C39.4027 55.3333 40 54.7373 40 54Z" fill="white"/>
<path d="M46.6667 42C46.6667 41.2627 46.0693 40.6667 45.3333 40.6667C44.5973 40.6667 44 41.2627 44 42V54C44 54.7373 44.5973 55.3333 45.3333 55.3333C46.0693 55.3333 46.6667 54.7373 46.6667 54V42Z" fill="white"/>
<path d="M50.6667 42C50.6667 41.2627 50.0693 40.6667 49.3333 40.6667C48.5973 40.6667 48 41.2627 48 42V54C48 54.7373 48.5973 55.3333 49.3333 55.3333C50.0693 55.3333 50.6667 54.7373 50.6667 54V42Z" fill="white"/>
<path d="M56 40.6667C55.264 40.6667 54.6666 41.2627 54.6666 42V54C54.6666 54.7373 55.264 55.3333 56 55.3333C56.736 55.3333 57.3333 54.7373 57.3333 54V42C57.3333 41.2627 56.736 40.6667 56 40.6667Z" fill="white"/>
<path d="M60 40.6667C59.264 40.6667 58.6666 41.2627 58.6666 42V54C58.6666 54.7373 59.264 55.3333 60 55.3333C60.736 55.3333 61.3333 54.7373 61.3333 54V42C61.3333 41.2627 60.736 40.6667 60 40.6667Z" fill="white"/>
<path d="M68 55.3333C68.736 55.3333 69.3333 54.7373 69.3333 54V42C69.3333 41.2627 68.736 40.6667 68 40.6667C67.264 40.6667 66.6666 41.2627 66.6666 42V54C66.6666 54.7373 67.264 55.3333 68 55.3333Z" fill="white"/>
<path d="M5.33337 15.3333V34C5.33337 34.7373 5.93071 35.3333 6.66671 35.3333C7.40271 35.3333 8.00004 34.7373 8.00004 34V15.3333C8.00004 14.596 7.40271 14 6.66671 14C5.93071 14 5.33337 14.596 5.33337 15.3333Z" fill="white"/>
<path d="M74.6667 34V15.3333C74.6667 14.596 74.0693 14 73.3333 14C72.5973 14 72 14.596 72 15.3333V34C72 34.7373 72.5973 35.3333 73.3333 35.3333C74.0693 35.3333 74.6667 34.7373 74.6667 34Z" fill="white"/>
<path d="M10.6666 34C10.6666 34.7373 11.264 35.3333 12 35.3333C12.736 35.3333 13.3333 34.7373 13.3333 34V15.3333C13.3333 14.596 12.736 14 12 14C11.264 14 10.6666 14.596 10.6666 15.3333V34Z" fill="white"/>
<path d="M16 35.3333C16.736 35.3333 17.3333 34.7373 17.3333 34V15.3333C17.3333 14.596 16.736 14 16 14C15.264 14 14.6666 14.596 14.6666 15.3333V34C14.6666 34.7373 15.264 35.3333 16 35.3333Z" fill="white"/>
<path d="M22.6667 35.3333C23.4027 35.3333 24 34.7373 24 34V15.3333C24 14.596 23.4027 14 22.6667 14C21.9307 14 21.3334 14.596 21.3334 15.3333V34C21.3334 34.7373 21.9307 35.3333 22.6667 35.3333Z" fill="white"/>
<path d="M26.6667 35.3333C27.4027 35.3333 28 34.7373 28 34V15.3333C28 14.596 27.4027 14 26.6667 14C25.9307 14 25.3334 14.596 25.3334 15.3333V34C25.3334 34.7373 25.9307 35.3333 26.6667 35.3333Z" fill="white"/>
<path d="M30.6667 35.3333C31.4027 35.3333 32 34.7373 32 34V15.3333C32 14.596 31.4027 14 30.6667 14C29.9307 14 29.3334 14.596 29.3334 15.3333V34C29.3334 34.7373 29.9307 35.3333 30.6667 35.3333Z" fill="white"/>
<path d="M38.6667 35.3333C39.4027 35.3333 40 34.7373 40 34V15.3333C40 14.596 39.4027 14 38.6667 14C37.9307 14 37.3334 14.596 37.3334 15.3333V34C37.3334 34.7373 37.9307 35.3333 38.6667 35.3333Z" fill="white"/>
<path d="M45.3333 35.3333C46.0693 35.3333 46.6667 34.7373 46.6667 34V15.3333C46.6667 14.596 46.0693 14 45.3333 14C44.5973 14 44 14.596 44 15.3333V34C44 34.7373 44.5973 35.3333 45.3333 35.3333Z" fill="white"/>
<path d="M49.3333 35.3333C50.0693 35.3333 50.6667 34.7373 50.6667 34V15.3333C50.6667 14.596 50.0693 14 49.3333 14C48.5973 14 48 14.596 48 15.3333V34C48 34.7373 48.5973 35.3333 49.3333 35.3333Z" fill="white"/>
<path d="M56 35.3333C56.736 35.3333 57.3333 34.7373 57.3333 34V15.3333C57.3333 14.596 56.736 14 56 14C55.264 14 54.6666 14.596 54.6666 15.3333V34C54.6666 34.7373 55.264 35.3333 56 35.3333Z" fill="white"/>
<path d="M60 35.3333C60.736 35.3333 61.3333 34.7373 61.3333 34V15.3333C61.3333 14.596 60.736 14 60 14C59.264 14 58.6666 14.596 58.6666 15.3333V34C58.6666 34.7373 59.264 35.3333 60 35.3333Z" fill="white"/>
<path d="M68 35.3333C68.736 35.3333 69.3333 34.7373 69.3333 34V15.3333C69.3333 14.596 68.736 14 68 14C67.264 14 66.6666 14.596 66.6666 15.3333V34C66.6666 34.7373 67.264 35.3333 68 35.3333Z" fill="white"/>
<path d="M12 59.3333C11.264 59.3333 10.6666 59.9293 10.6666 60.6667V62C10.6666 62.7373 11.264 63.3333 12 63.3333C12.736 63.3333 13.3333 62.7373 13.3333 62V60.6667C13.3333 59.9293 12.736 59.3333 12 59.3333Z" fill="white"/>
<path d="M16 59.3333C15.264 59.3333 14.6666 59.9293 14.6666 60.6667V62C14.6666 62.7373 15.264 63.3333 16 63.3333C16.736 63.3333 17.3333 62.7373 17.3333 62V60.6667C17.3333 59.9293 16.736 59.3333 16 59.3333Z" fill="white"/>
<path d="M20 59.3333C19.264 59.3333 18.6666 59.9293 18.6666 60.6667V62C18.6666 62.7373 19.264 63.3333 20 63.3333C20.736 63.3333 21.3333 62.7373 21.3333 62V60.6667C21.3333 59.9293 20.736 59.3333 20 59.3333Z" fill="white"/>
<path d="M24 59.3333C23.264 59.3333 22.6666 59.9293 22.6666 60.6667V62C22.6666 62.7373 23.264 63.3333 24 63.3333C24.736 63.3333 25.3333 62.7373 25.3333 62V60.6667C25.3333 59.9293 24.736 59.3333 24 59.3333Z" fill="white"/>
<path d="M28 59.3333C27.264 59.3333 26.6666 59.9293 26.6666 60.6667V62C26.6666 62.7373 27.264 63.3333 28 63.3333C28.736 63.3333 29.3333 62.7373 29.3333 62V60.6667C29.3333 59.9293 28.736 59.3333 28 59.3333Z" fill="white"/>
<path d="M32 59.3333C31.264 59.3333 30.6666 59.9293 30.6666 60.6667V62C30.6666 62.7373 31.264 63.3333 32 63.3333C32.736 63.3333 33.3333 62.7373 33.3333 62V60.6667C33.3333 59.9293 32.736 59.3333 32 59.3333Z" fill="white"/>
<path d="M36 59.3333C35.264 59.3333 34.6666 59.9293 34.6666 60.6667V62C34.6666 62.7373 35.264 63.3333 36 63.3333C36.736 63.3333 37.3333 62.7373 37.3333 62V60.6667C37.3333 59.9293 36.736 59.3333 36 59.3333Z" fill="white"/>
<path d="M40 59.3333C39.264 59.3333 38.6666 59.9293 38.6666 60.6667V62C38.6666 62.7373 39.264 63.3333 40 63.3333C40.736 63.3333 41.3333 62.7373 41.3333 62V60.6667C41.3333 59.9293 40.736 59.3333 40 59.3333Z" fill="white"/>
<path d="M44 59.3333C43.264 59.3333 42.6666 59.9293 42.6666 60.6667V62C42.6666 62.7373 43.264 63.3333 44 63.3333C44.736 63.3333 45.3333 62.7373 45.3333 62V60.6667C45.3333 59.9293 44.736 59.3333 44 59.3333Z" fill="white"/>
<path d="M48 59.3333C47.264 59.3333 46.6666 59.9293 46.6666 60.6667V62C46.6666 62.7373 47.264 63.3333 48 63.3333C48.736 63.3333 49.3333 62.7373 49.3333 62V60.6667C49.3333 59.9293 48.736 59.3333 48 59.3333Z" fill="white"/>
<path d="M52 59.3333C51.264 59.3333 50.6666 59.9293 50.6666 60.6667V62C50.6666 62.7373 51.264 63.3333 52 63.3333C52.736 63.3333 53.3333 62.7373 53.3333 62V60.6667C53.3333 59.9293 52.736 59.3333 52 59.3333Z" fill="white"/>
<path d="M56 59.3333C55.264 59.3333 54.6666 59.9293 54.6666 60.6667V62C54.6666 62.7373 55.264 63.3333 56 63.3333C56.736 63.3333 57.3333 62.7373 57.3333 62V60.6667C57.3333 59.9293 56.736 59.3333 56 59.3333Z" fill="white"/>
<path d="M60 59.3333C59.264 59.3333 58.6666 59.9293 58.6666 60.6667V62C58.6666 62.7373 59.264 63.3333 60 63.3333C60.736 63.3333 61.3333 62.7373 61.3333 62V60.6667C61.3333 59.9293 60.736 59.3333 60 59.3333Z" fill="white"/>
<path d="M64 59.3333C63.264 59.3333 62.6666 59.9293 62.6666 60.6667V62C62.6666 62.7373 63.264 63.3333 64 63.3333C64.736 63.3333 65.3333 62.7373 65.3333 62V60.6667C65.3333 59.9293 64.736 59.3333 64 59.3333Z" fill="white"/>
<path d="M69.3333 60.6667C69.3333 59.9293 68.736 59.3333 68 59.3333C67.264 59.3333 66.6666 59.9293 66.6666 60.6667V62C66.6666 62.7373 67.264 63.3333 68 63.3333C68.736 63.3333 69.3333 62.7373 69.3333 62V60.6667Z" fill="white"/>
<path d="M10.6667 71.3333H2.66667V64.6667C2.66667 63.9293 2.06933 63.3333 1.33333 63.3333C0.597333 63.3333 0 63.9293 0 64.6667V74H10.6667C11.4027 74 12 73.404 12 72.6667C12 71.9293 11.4027 71.3333 10.6667 71.3333Z" fill="white"/>
<path d="M78.6667 63.3333C77.9307 63.3333 77.3334 63.9293 77.3334 64.6667V71.3333H70.6667C69.9307 71.3333 69.3334 71.9293 69.3334 72.6667C69.3334 73.404 69.9307 74 70.6667 74H80V64.6667C80 63.9293 79.4027 63.3333 78.6667 63.3333Z" fill="white"/>
<path d="M69.3333 6C68.5973 6 68 6.596 68 7.33333C68 8.07067 68.5973 8.66667 69.3333 8.66667H77.3333V15.3333C77.3333 16.0707 77.9307 16.6667 78.6667 16.6667C79.4027 16.6667 80 16.0707 80 15.3333V6H69.3333Z" fill="white"/>
<path d="M1.33333 16.6667C2.06933 16.6667 2.66667 16.0707 2.66667 15.3333V8.66667H9.33333C10.0693 8.66667 10.6667 8.07067 10.6667 7.33333C10.6667 6.596 10.0693 6 9.33333 6H0V15.3333C0 16.0707 0.597333 16.6667 1.33333 16.6667Z" fill="white"/>
<path d="M78.6667 36.6667H1.33333C0.597333 36.6667 0 37.2627 0 38C0 38.7373 0.597333 39.3333 1.33333 39.3333H78.6667C79.4027 39.3333 80 38.7373 80 38C80 37.2627 79.4027 36.6667 78.6667 36.6667Z" fill="white"/>
</svg>
