<svg width="22" height="26" viewBox="0 0 22 26" fill="none" xmlns="http://www.w3.org/2000/svg">
<path d="M21.5928 21.2257C18.9843 19.9795 18.8851 14.6304 18.8831 14.4954V10.9068C18.8831 7.4529 16.8881 4.48293 14.0531 3.21835C14.047 1.44262 12.6799 0 11.0001 0C9.32025 0 7.95318 1.4427 7.94705 3.21827C5.11216 4.48285 3.11708 7.45282 3.11708 10.9067V14.4953C3.11523 14.6303 3.01593 19.9795 0.407365 21.2257C0.110207 21.3677 -0.0531117 21.7099 0.0155927 22.0471C0.0842169 22.3844 0.366134 22.6253 0.692249 22.6253H7.3052C7.44077 23.4142 7.79339 24.1482 8.33272 24.7426C9.04904 25.5322 9.99635 25.967 11 25.967C12.0037 25.967 12.951 25.5322 13.6672 24.7426C14.2066 24.1481 14.5592 23.4141 14.6947 22.6253H21.3077C21.6338 22.6253 21.9157 22.3844 21.9844 22.0471C22.0532 21.7099 21.8899 21.3677 21.5928 21.2257ZM18.1566 18.6632C18.4308 19.5427 18.8191 20.4259 19.3697 21.1609H2.63037C3.18089 20.426 3.56917 19.5428 3.84339 18.6632H18.1566ZM11.0001 1.46447C11.7599 1.46447 12.4024 2.0046 12.6034 2.74085C12.0855 2.62722 11.5493 2.56731 11.0001 2.56731C10.4509 2.56731 9.91465 2.62718 9.39678 2.74085C9.59784 2.00464 10.2403 1.46447 11.0001 1.46447ZM4.5014 14.4998V10.9067C4.5014 7.11584 7.41666 4.03178 11.0001 4.03178C14.5835 4.03178 17.4988 7.11584 17.4988 10.9067V14.5058C17.4997 14.616 17.5159 15.7736 17.7917 17.1986H4.20833C4.48427 15.7722 4.50055 14.6126 4.5014 14.4998ZM11.0001 24.5027C9.94361 24.5027 9.02157 23.6968 8.72562 22.6253H13.2745C12.9785 23.6968 12.0566 24.5027 11.0001 24.5027Z" fill="#B2AC88"/>
<path d="M10.9999 5.05908C8.02191 5.05908 5.59912 7.62206 5.59912 10.7724C5.59912 11.1768 5.90903 11.5047 6.2913 11.5047C6.67357 11.5047 6.98348 11.1768 6.98348 10.7724C6.98348 8.42959 8.78524 6.52355 10.9999 6.52355C11.3822 6.52355 11.6921 6.1957 11.6921 5.7913C11.6921 5.38685 11.3822 5.05908 10.9999 5.05908Z" fill="#B2AC88"/>
</svg>
