<svg width="32" height="32" viewBox="0 0 32 32" fill="none" xmlns="http://www.w3.org/2000/svg">
<path d="M21.9881 8.03688C21.8758 6.90456 21.8981 5.85781 22.1666 4.86838C22.3017 4.37313 22.499 3.89056 22.7775 3.41363C23.057 2.93556 23.419 2.46306 23.8881 1.99394L24.6585 1.22344L23.4356 0L22.6646 0.769938C21.9425 1.492 21.4111 2.25244 21.0409 3.04119C20.4828 4.22631 20.2916 5.472 20.3055 6.71881C20.3171 7.96675 20.5245 9.22138 20.763 10.4816C20.9186 11.3026 21.0531 12.0925 21.1282 12.8468C21.241 13.9791 21.2183 15.0264 20.9492 16.0153C20.8147 16.5101 20.6173 16.9931 20.3383 17.4706C20.0587 17.9481 19.6968 18.42 19.2277 18.8892V18.8898H19.2283L18.8897 19.2283C18.7991 19.3183 18.7096 19.4045 18.6179 19.4873L13.0781 13.9475C12.8046 14.2488 12.5738 14.5568 12.3771 14.8797L17.698 20.1999C17.4628 20.3501 17.2271 20.4801 16.9898 20.5913C16.7268 20.7153 16.4617 20.8169 16.1915 20.8981L11.7312 16.4378C11.6245 16.8853 11.5672 17.365 11.5566 17.8975L14.8196 21.1599C14.5361 21.1849 14.2471 21.1938 13.9519 21.1922C13.291 21.1856 12.6017 21.1154 11.8824 21.006C11.9124 21.1705 11.9413 21.3284 11.9708 21.4824C12.0425 21.8553 12.1136 22.2473 12.1792 22.6525C12.4255 22.687 12.6706 22.7159 12.9157 22.7403C14.1659 22.8643 15.4183 22.8493 16.639 22.5179C17.2493 22.3529 17.848 22.1077 18.4289 21.7675C19.0092 21.4279 19.5728 20.9926 20.1132 20.4523L20.4511 20.1133C21.1733 19.3923 21.7041 18.6313 22.076 17.842C22.6335 16.6568 22.8241 15.4123 22.8114 14.1649C22.7986 12.9169 22.5918 11.6618 22.3539 10.4021C22.1971 9.5805 22.0631 8.79119 21.9881 8.03688Z" fill="#B2AC88"/>
<path d="M30.776 7.34142L30.0061 8.1113C29.915 8.20192 29.8255 8.28811 29.7343 8.37036L24.1939 2.82999C23.921 3.13186 23.6903 3.44036 23.4935 3.76217L28.8137 9.08305C28.5786 9.23367 28.344 9.36317 28.1061 9.47436C27.8431 9.5983 27.5775 9.69999 27.3079 9.78117L22.8476 5.32142C22.7408 5.7683 22.6836 6.24805 22.6736 6.78055L25.936 10.043C25.6525 10.0685 25.3635 10.0769 25.0682 10.0752C24.4073 10.0691 23.718 9.99855 22.9987 9.88849C23.0287 10.053 23.057 10.212 23.0876 10.366C23.1582 10.7389 23.2294 11.1302 23.2955 11.5355C23.5418 11.57 23.7863 11.5989 24.0315 11.6234C25.2822 11.7473 26.5351 11.7329 27.7548 11.401C28.3651 11.236 28.9643 10.9914 29.5452 10.6507C30.125 10.3116 30.6886 9.87574 31.23 9.33486L31.9994 8.56442L30.776 7.34142Z" fill="#B2AC88"/>
<path d="M8.50594 28.2378L3.18619 22.9181C3.42025 22.7664 3.65594 22.6363 3.89325 22.5257C4.15675 22.4017 4.42188 22.2995 4.6915 22.2188L9.15181 26.6792C9.25856 26.2323 9.31581 25.752 9.32581 25.2195L6.06456 21.9581C6.34806 21.9331 6.63656 21.9226 6.93169 21.9248C7.59206 21.9309 8.28194 22.0026 8.99956 22.1121C8.97069 21.9471 8.94181 21.7875 8.91231 21.6341C8.84119 21.2616 8.77056 20.8692 8.70444 20.464C8.45869 20.4317 8.21419 20.4023 7.969 20.3778C6.71769 20.2521 5.46425 20.2666 4.24406 20.5985C3.636 20.7653 3.03506 21.0098 2.45419 21.3495C1.87444 21.6885 1.31075 22.1238 0.769875 22.6652L0 23.4351L1.2235 24.6591L1.99338 23.8887C2.084 23.7981 2.17463 23.712 2.26581 23.6296L7.80619 29.1695C8.0785 28.8683 8.31025 28.5598 8.50594 28.2378Z" fill="#B2AC88"/>
<path d="M10.8717 19.1538C10.76 18.0215 10.7817 16.9742 11.0502 15.9859C11.1852 15.4895 11.3821 15.0076 11.6616 14.5301C11.9406 14.0526 12.3031 13.5796 12.7722 13.1104L13.1107 12.7724L13.1102 12.7713C13.2002 12.6807 13.2909 12.5951 13.3826 12.5133L18.9219 18.0526C19.1948 17.7513 19.4266 17.4423 19.6217 17.121L14.302 11.8013C14.5366 11.6496 14.7728 11.5194 15.0096 11.4088C15.2731 11.2854 15.5382 11.1826 15.8079 11.1019L20.2682 15.5618C20.3755 15.1148 20.4322 14.6356 20.4422 14.1031L17.1809 10.8413C17.4638 10.8163 17.7529 10.8057 18.048 10.8085C18.7079 10.8146 19.3982 10.8863 20.1159 10.9948C20.087 10.8302 20.0581 10.6712 20.0286 10.5173C19.9575 10.1443 19.8863 9.75288 19.8207 9.34769C19.5756 9.31432 19.3305 9.28494 19.0853 9.26044C17.8335 9.13588 16.5806 9.15038 15.3604 9.48219C14.7522 9.64838 14.1514 9.89301 13.5705 10.2326C12.9907 10.5723 12.4271 11.0069 11.8862 11.5484L11.8867 11.5489L11.5482 11.8874C10.8267 12.6089 10.2953 13.3694 9.9245 14.1588C9.36643 15.3439 9.17518 16.589 9.18906 17.8353C9.20081 19.0838 9.40806 20.3389 9.646 21.5986C9.80218 22.4196 9.93668 23.2094 10.0117 23.9633C10.124 25.0967 10.1018 26.1428 9.83275 27.1323C9.69825 27.627 9.50087 28.11 9.22237 28.5876C8.94275 29.0651 8.57975 29.5364 8.11118 30.0062L7.34131 30.7766L8.56431 32L9.33531 31.2301C10.0568 30.5086 10.5882 29.7476 10.9596 28.9588C11.5171 27.7737 11.7083 26.5291 11.695 25.2818C11.6822 24.0333 11.4749 22.7792 11.2369 21.5196C11.0807 20.6979 10.9467 19.9086 10.8717 19.1538Z" fill="#B2AC88"/>
</svg>
