<svg width="20" height="22" viewBox="0 0 20 22" fill="none" xmlns="http://www.w3.org/2000/svg">
<path fill-rule="evenodd" clip-rule="evenodd" d="M18.1275 0.882775C17.0574 -0.294256 15.3226 -0.29426 14.2525 0.882775L1.32199 15.1064C0.939488 15.5271 0.67876 16.063 0.572676 16.6464L0.036488 19.5955C-0.219142 21.0014 0.907759 22.2411 2.18591 21.9599L4.86684 21.37C5.39728 21.2534 5.88445 20.9666 6.26695 20.5458L19.1975 6.32222C20.2675 5.14519 20.2675 3.23684 19.1975 2.0598L18.1275 0.882775ZM15.5441 2.30358C15.9009 1.91124 16.4791 1.91124 16.8359 2.30358L17.9058 3.48061C18.2626 3.87295 18.2626 4.50907 17.9058 4.90142L15.4658 7.58545L13.1042 4.98761L15.5441 2.30358ZM11.8125 6.40843L2.61363 16.5272C2.48613 16.6674 2.39923 16.846 2.36386 17.0405L1.82767 19.9895L4.50861 19.3997C4.68542 19.3608 4.84781 19.2653 4.97531 19.125L14.1741 9.00626L11.8125 6.40843Z" fill="#B2AC88"/>
</svg>
