<svg width="26" height="26" viewBox="0 0 26 26" fill="none" xmlns="http://www.w3.org/2000/svg">
<path d="M25.9363 5.60427C25.8283 5.05817 25.5846 4.54203 25.2291 4.10811C25.1569 4.01701 25.0814 3.93596 24.9988 3.85374C24.3664 3.21796 23.4867 2.8533 22.5852 2.8533H3.41473C2.50316 2.8533 1.64582 3.20877 1.00064 3.8541C0.918988 3.93555 0.843273 4.01741 0.76832 4.11141C0.414375 4.54351 0.171793 5.05893 0.0663203 5.6058C0.0222422 5.82055 0 6.04308 0 6.26819V19.7322C0 20.2006 0.0951641 20.6567 0.283816 21.0903C0.447078 21.4754 0.694789 21.8405 1.00044 22.146C1.07743 22.2226 1.1539 22.2933 1.23556 22.3622C1.84666 22.8683 2.62047 23.1468 3.41473 23.1468H22.5852C23.3846 23.1468 24.1576 22.8672 24.7671 22.3566C24.8485 22.2907 24.924 22.2215 24.9996 22.146C25.295 21.8508 25.5298 21.5117 25.6986 21.1378L25.7209 21.0844C25.906 20.659 26 20.2044 26 19.7322V6.26819C26 6.04602 25.9786 5.82202 25.9363 5.60427ZM1.76836 5.03263C1.81665 4.96194 1.8783 4.88938 1.95696 4.81011C2.34741 4.41985 2.86523 4.2051 3.41468 4.2051H22.5851C23.1394 4.2051 23.6574 4.42021 24.0435 4.81087C24.1102 4.87826 24.1739 4.95306 24.2294 5.02781L24.376 5.22484L14.1436 14.1428C13.8281 14.4194 13.422 14.5716 12.9998 14.5716C12.5819 14.5716 12.1761 14.4197 11.8569 14.1432L1.63465 5.22738L1.76836 5.03263ZM1.35865 19.8511C1.35312 19.8144 1.35185 19.7737 1.35185 19.7322V6.54698L9.29251 13.4741L1.43198 20.3276L1.35865 19.8511ZM23.6082 21.5231C23.3008 21.7005 22.9469 21.7945 22.5852 21.7945H3.41473C3.05282 21.7945 2.69902 21.7005 2.3919 21.5231L2.07055 21.3369L10.1923 14.259L11.0824 15.0332C11.6163 15.4968 12.2972 15.7523 12.9999 15.7523C13.7053 15.7523 14.3873 15.4968 14.9209 15.0332L15.8106 14.2587L23.9295 21.3373L23.6082 21.5231ZM24.6478 19.7322C24.6478 19.773 24.647 19.8133 24.6419 19.8492L24.5715 20.3302L16.7076 13.4778L24.6478 6.55033V19.7322Z" fill="#B2AC88"/>
</svg>
