<svg width="29" height="29" viewBox="0 0 29 29" fill="none" xmlns="http://www.w3.org/2000/svg">
<path d="M5.60319 2.75543L7.6802 26.6569H20.6608L22.7378 2.75543H5.60319ZM5.60319 1.73273H22.7382C22.8768 1.73256 23.0138 1.76191 23.1407 1.81892C23.2676 1.87593 23.3814 1.95935 23.4751 2.06387C23.5687 2.16838 23.64 2.2917 23.6845 2.42598C23.729 2.56026 23.7457 2.70255 23.7336 2.84379L21.6561 26.7452C21.6339 26.9996 21.5194 27.2362 21.3351 27.4085C21.1509 27.5808 20.9103 27.6762 20.6608 27.6759H7.6802C7.43043 27.6765 7.18952 27.5812 7.00501 27.4089C6.8205 27.2366 6.7058 26.9998 6.68354 26.7452L4.60829 2.8456C4.59586 2.70425 4.61236 2.56181 4.65672 2.42734C4.70108 2.29288 4.77234 2.16936 4.86595 2.06465C4.95956 1.95994 5.07346 1.87634 5.2004 1.81919C5.32733 1.76205 5.46451 1.7326 5.60319 1.73273Z" fill="#938C63"/>
</svg>
