<svg width="28" height="29" viewBox="0 0 28 29" fill="none" xmlns="http://www.w3.org/2000/svg">
<path d="M5.349 2.75543L7.33571 26.6569H19.7519L21.7386 2.75543H5.349ZM5.349 1.73273H21.739C21.8716 1.73256 22.0027 1.76191 22.124 1.81892C22.2453 1.87593 22.3543 1.95935 22.4438 2.06387C22.5334 2.16838 22.6016 2.2917 22.6442 2.42598C22.6868 2.56026 22.7027 2.70255 22.6911 2.84379L20.704 26.7452C20.6827 26.9996 20.5732 27.2362 20.3969 27.4085C20.2207 27.5808 19.9906 27.6762 19.7519 27.6759H7.33571C7.09679 27.6765 6.86635 27.5812 6.68987 27.4089C6.51338 27.2366 6.40367 26.9998 6.38237 26.7452L4.39736 2.8456C4.38547 2.70425 4.40125 2.56181 4.44368 2.42734C4.48611 2.29288 4.55427 2.16936 4.64381 2.06465C4.73335 1.95994 4.8423 1.87634 4.96372 1.81919C5.08513 1.76205 5.21635 1.7326 5.349 1.73273Z" fill="#938C63"/>
<path d="M7.20569 12.7428C7.20569 12.7428 8.76126 11.6322 11.3311 12.1533C13.901 12.6744 13.9205 13.185 16.2816 13.4728C18.6427 13.7605 20.0132 12.7423 20.0132 12.7423L18.9595 25.6632H8.17596L7.20569 12.7428Z" fill="#F1CE41"/>
</svg>
