<svg width="23" height="22" viewBox="0 0 23 22" fill="none" xmlns="http://www.w3.org/2000/svg">
<path d="M22.5426 11.085C22.5426 10.3824 22.4701 9.65708 22.3493 8.97711H11.8899V12.9889H17.8805C17.639 14.2808 16.8418 15.4141 15.6582 16.1394L19.2332 18.7459C21.3348 16.91 22.5426 14.2355 22.5426 11.085Z" fill="#4280EF"/>
<path d="M11.8894 21.2391C14.8847 21.2391 17.3969 20.3098 19.2328 18.7232L15.6577 16.1394C14.6673 16.774 13.3871 17.1367 11.8894 17.1367C8.99075 17.1367 6.55102 15.3007 5.65726 12.8529L1.9856 15.5047C3.86974 19.0179 7.68634 21.2391 11.8894 21.2391Z" fill="#34A353"/>
<path d="M5.65712 12.8302C5.19816 11.5383 5.19816 10.1331 5.65712 8.84112L1.98545 6.1666C0.415331 9.11311 0.415331 12.5809 1.98545 15.5048L5.65712 12.8302Z" fill="#F6B704"/>
<path d="M11.8894 4.55734C13.4596 4.53467 15.0055 5.10131 16.1408 6.12125L19.3052 3.12941C17.3003 1.3615 14.6432 0.409554 11.8894 0.432219C7.68634 0.432219 3.86974 2.65344 1.9856 6.16658L5.65726 8.84111C6.55102 6.37057 8.99075 4.55734 11.8894 4.55734Z" fill="#E54335"/>
</svg>
