<svg width="29" height="30" viewBox="0 0 29 30" fill="none" xmlns="http://www.w3.org/2000/svg">
<g clip-path="url(#clip0_424_182)">
<path d="M2.19702 27.8676V13.1618C2.19702 12.1465 3.01671 11.3235 4.02783 11.3235H22.3359C23.3471 11.3235 24.1667 12.1465 24.1667 13.1618V27.8676C24.1667 28.8829 23.3471 29.7059 22.3359 29.7059H4.02783C3.01671 29.7059 2.19702 28.8829 2.19702 27.8676Z" stroke="#B2AC88" stroke-width="2.5" stroke-linejoin="round"/>
<path d="M13.1819 24.1912C15.2041 24.1912 16.8435 22.5452 16.8435 20.5147C16.8435 18.4842 15.2041 16.8382 13.1819 16.8382C11.1596 16.8382 9.52026 18.4842 9.52026 20.5147C9.52026 22.5452 11.1596 24.1912 13.1819 24.1912Z" stroke="#B2AC88" stroke-width="2.5" stroke-linejoin="round"/>
<path d="M5.85864 11.3235V7.64707C5.85864 3.58615 9.13736 0.294128 13.1819 0.294128C17.2263 0.294128 20.5051 3.58615 20.5051 7.64707V11.3235H5.85864Z" stroke="#B2AC88" stroke-width="2.5" stroke-linejoin="round"/>
</g>
<defs>
<clipPath id="clip0_424_182">
<rect width="29" height="30" fill="white"/>
</clipPath>
</defs>
</svg>
