<svg width="24" height="27" viewBox="0 0 24 27" fill="none" xmlns="http://www.w3.org/2000/svg">
<path d="M23.25 5.59082V10.1719C23.0878 17.2321 18.6074 23.5139 12 26.1895C5.60176 23.5986 1.19785 17.6263 0.77832 10.8398L0.75 10.1719V5.59082L12 0.814453L23.25 5.59082ZM12.0996 17.5898H11.7295L11.9141 16.7344L12.0996 17.5898ZM12 13.6553C12.3531 13.6553 12.5658 13.7706 12.6738 13.8857C12.7717 13.9901 12.8559 14.1694 12.8037 14.4795L12.793 14.541V14.6035C12.793 14.8175 12.7401 14.9505 12.6816 15.0303C12.6269 15.1049 12.5288 15.1861 12.334 15.2344L11.8574 15.3516L11.5498 15.25C11.264 15.1556 11.0361 14.8832 11.0361 14.6035C11.0362 14.2668 11.1458 14.0433 11.2852 13.9053C11.4252 13.7667 11.6542 13.6553 12 13.6553ZM12.1719 6.35352C12.9376 6.35371 13.5133 6.86249 13.6504 7.70996V9.43848H10.5215V7.6416C10.5215 7.31875 10.6805 7.01016 10.9902 6.76172C11.3054 6.50899 11.7402 6.35352 12.1719 6.35352ZM17.3789 7.61426L17.377 7.58789C17.1764 4.80646 14.7813 2.64648 12 2.64648C9.21867 2.64648 6.82361 4.80646 6.62305 7.58789L6.62109 7.61426V9.44824C6.03062 9.49524 5.49335 9.7205 5.08691 10.123C4.62629 10.5793 4.3926 11.2047 4.39258 11.8867V18.6797C4.39268 19.3615 4.62637 19.9872 5.08691 20.4434C5.5469 20.8988 6.17497 21.127 6.85742 21.127H17.1426C17.825 21.127 18.4531 20.8988 18.9131 20.4434C19.3736 19.9872 19.6073 19.3615 19.6074 18.6797V11.8867C19.6074 11.2047 19.3737 10.5793 18.9131 10.123C18.5067 9.72051 17.9694 9.49524 17.3789 9.44824V7.61426Z" stroke="#B2AC88" stroke-width="1.5"/>
</svg>
