<svg width="25" height="25" viewBox="0 0 25 25" fill="none" xmlns="http://www.w3.org/2000/svg">
<path d="M8.33333 11.4584H8.34375M12.5 11.4584H12.5104M16.6667 11.4584H16.6771M21.875 20.8334L18.4122 19.1019C18.1497 18.9706 18.0184 18.905 17.8808 18.8588C17.7587 18.8177 17.633 18.788 17.5054 18.7701C17.3617 18.75 17.2149 18.75 16.9215 18.75H6.45833C5.29155 18.75 4.70817 18.75 4.26252 18.5229C3.87051 18.3232 3.5518 18.0045 3.35207 17.6125C3.125 17.1669 3.125 16.5835 3.125 15.4167V7.50002C3.125 6.33324 3.125 5.74985 3.35207 5.30421C3.5518 4.9122 3.87051 4.59349 4.26252 4.39376C4.70817 4.16669 5.29156 4.16669 6.45833 4.16669H18.5417C19.7084 4.16669 20.2919 4.16669 20.7375 4.39376C21.1295 4.59349 21.4482 4.9122 21.6479 5.30421C21.875 5.74985 21.875 6.33325 21.875 7.50002V20.8334Z" stroke="#B2AC88" stroke-width="2" stroke-linecap="round" stroke-linejoin="round"/>
</svg>
