<svg width="38" height="35" viewBox="0 0 38 35" fill="none" xmlns="http://www.w3.org/2000/svg">
<path d="M1.23421 19.8512C0.922242 20.8252 0.749832 21.8744 0.749832 22.9703C0.749853 28.1769 4.55597 32.2753 9.11116 32.2975H9.14632C11.9604 32.2974 14.2594 30.5599 14.9119 28.3024L15.2323 27.193L16.1151 27.9362C17.5274 29.1248 18.4324 30.8427 18.4324 32.7711V33.3239C18.4324 33.3264 18.4329 33.3283 18.4344 33.3317C18.4364 33.3359 18.4418 33.345 18.4539 33.3561C18.4787 33.3785 18.5264 33.4038 18.5965 33.4039C18.6669 33.4039 18.7153 33.3785 18.7401 33.3561C18.7522 33.345 18.7576 33.3359 18.7596 33.3317C18.7611 33.3283 18.7616 33.3264 18.7616 33.3239V32.7711C18.7616 30.4697 17.4697 28.4115 15.4549 27.191L15.4539 27.192C14.7073 26.7414 13.8723 26.4091 12.9686 26.2223L12.9696 26.2213C12.4228 26.1101 11.8597 26.0514 11.2801 26.0514H7.92659C7.24722 26.0514 6.56721 25.5331 6.56721 24.7477C6.56728 23.9623 7.24725 23.4449 7.92659 23.4449H11.2801C12.188 23.4449 13.0687 23.5527 13.908 23.7565C12.8311 22.4744 11.1144 21.6247 9.14632 21.6246H5.18245C3.59682 21.6245 2.16047 20.942 1.23421 19.8512Z" stroke="#B2AC88" stroke-width="1.5"/>
<path d="M24.2918 8.79909C23.5461 8.04849 22.6596 7.36335 21.6419 6.78184C16.6293 3.9175 10.7467 4.75629 8.34356 8.17897L8.32519 8.20544C6.86367 10.3119 7.20083 13.0165 9.02933 14.7893L9.94104 15.6733L8.62674 15.9923C6.74774 16.4477 4.68219 16.2179 2.91863 15.2102L2.39887 14.9132C2.35226 14.8865 2.30616 14.8828 2.27178 14.8898C2.23836 14.8968 2.21816 14.9125 2.20512 14.9313C2.19207 14.9501 2.18515 14.9734 2.19272 15.0038C2.20053 15.035 2.22421 15.0711 2.27082 15.0977L2.79058 15.3947C5.01833 16.6677 7.68449 16.7523 9.89654 15.8552C10.7142 15.5221 11.464 15.0613 12.1126 14.4739L12.1123 14.4726C12.5045 14.1147 12.8571 13.7184 13.1628 13.2779L14.9655 10.68C15.3986 10.056 16.2724 9.9074 16.8922 10.2616C17.512 10.6158 17.7419 11.3951 17.3091 12.0191L15.5063 14.617C15.0092 15.3334 14.4236 15.9681 13.7701 16.5168C15.6379 16.4193 17.4145 15.5306 18.4737 14.0045L20.6043 10.934C21.4588 9.70283 22.8367 8.96573 24.2918 8.79909Z" stroke="#B2AC88" stroke-width="1.5"/>
<path d="M24.1032 32.3078C25.1635 31.9962 26.2154 31.5408 27.2164 30.9343C32.1393 27.9516 33.6973 22.7361 31.2314 19.3456L31.2123 19.3197C29.6869 17.2466 26.8271 16.4242 24.3 17.2154L23.0417 17.6093L23.2561 16.3957C23.5642 14.653 24.6372 13.0341 26.372 11.983L26.8831 11.6733C26.9767 11.6166 26.9645 11.5361 26.9415 11.5049C26.9184 11.4736 26.8411 11.4326 26.7477 11.4893L26.2365 11.799C24.049 13.1244 22.8764 15.2975 22.8767 17.4966C22.8783 18.3101 23.0364 19.1197 23.363 19.8973L23.3645 19.8975C23.5647 20.3688 23.8201 20.8237 24.1389 21.257L26.017 23.8095C26.4657 24.4193 26.2631 25.2046 25.6504 25.576C25.0374 25.9474 24.1597 25.8166 23.711 25.2067L21.8329 22.6542C21.3148 21.9501 20.9154 21.2054 20.6299 20.4399C19.9681 22.0262 20.138 23.8596 21.2423 25.3605L23.4625 28.3778C24.3529 29.5881 24.5317 31.0324 24.1032 32.3078Z" stroke="#B2AC88" stroke-width="1.5"/>
</svg>
